<?xml version="1.0" encoding="UTF-8"?>
<svg id="Layer_1" data-name="Layer 1" xmlns="http://www.w3.org/2000/svg" viewBox="0 0 791.4 750">
  <defs>
    <style>
      .cls-1 {
        fill: none;
        stroke: #000;
        stroke-miterlimit: 10;
        stroke-width: 10px;
      }
    </style>
  </defs>
  <path class="cls-1" d="M555.27,376.52c0,88.13-71.44,159.57-159.57,159.57s-159.57-71.44-159.57-159.57,71.44-159.57,159.57-159.57,159.57,71.44,159.57,159.57Z"/>
  <path class="cls-1" d="M259.5,215.21c7.33,7.36,1,19.94-4.69,23.39-8.85,5.38-16.71,2.67-23.55-4.17l-63.98-64c-7.04-7.04-9.3-15.8-3.03-24.33,4.25-5.78,17.03-9.44,23.88-2.55l71.36,71.66Z"/>
  <path class="cls-1" d="M560.78,233.82c-7.49,7.49-15.21,10.76-24.03,4.91-6.66-4.42-11.77-16.63-4.44-24.01l68.96-69.31c7.12-7.16,18.74-7.17,25.02-.11,7,7.87,5.2,17.79-2.09,25.08l-63.43,63.43Z"/>
  <path class="cls-1" d="M188.52,605.9c-7.58,7.61-19.36,3.82-24.04-2.34-6.85-9.02-3.74-17.49,3.77-25.02l63.9-64.07c6.4-6.41,14.57-8.31,22.58-3.18,5.59,3.58,12.11,15.96,5.14,22.96l-71.35,71.65Z"/>
  <path class="cls-1" d="M626.64,582.26c7.44,7.47,3.68,18.99-1.53,23.36-8.43,7.09-17.95,4.9-24.8-1.99l-67.9-68.33c-6.78-6.82-2.71-18.44,3.17-23.12,8.29-6.6,17.48-3.89,24.73,3.4l66.34,66.67Z"/>
  <path class="cls-1" d="M703.9,392.11l-94.65.11c-10.36.01-17.32-7.36-17.8-16.34-.53-10.08,6.75-18.03,17.78-18.03h95.73c9.6,0,15.56,8.23,16.03,16.26.5,8.5-5.7,17.98-17.09,17.99Z"/>
  <path class="cls-1" d="M412.87,161.55c0,10.16-7.3,17.33-16.29,17.73-9.77.43-18.05-6.91-18.05-17.72l-.03-93.63c0-10.54,6.81-17.74,16.34-18.25,9.99-.53,18.07,7.11,18.07,18.26l-.04,93.61Z"/>
  <path class="cls-1" d="M185.35,391.89l-98.69.18c-10.37.02-16.74-9.74-16.25-17.91.57-9.5,7.87-16.27,18.26-16.27l93.6-.06c9.53,0,16.04,6.08,17.52,14.84,1.15,6.81-3.63,19.2-14.43,19.22Z"/>
  <path class="cls-1" d="M412.89,681.12c0,11.56-6.73,18.6-16.3,19.19-8.27.51-17.9-5.8-17.92-16.2l-.16-95.63c-.02-10.13,7.4-17.29,16.4-17.76,9.81-.51,17.97,6.99,17.97,17.74v92.65Z"/>
</svg>