<?xml version="1.0" encoding="UTF-8"?>
<svg id="Layer_1" data-name="Layer 1" xmlns="http://www.w3.org/2000/svg" viewBox="0 0 791.4 750">
  <defs>
    <style>
      .cls-1 {
        fill: none;
        stroke: #000;
        stroke-miterlimit: 10;
        stroke-width: 6px;
      }
    </style>
  </defs>
  <path class="cls-1" d="M369.7,266.94l-13.54,14.19,11.55,384.97c.3,10.13-2.01,18.99-9.18,25.63-8.46,7.84-20.75,8.36-29.67.87-7.08-5.94-10.53-14.45-10.24-24.36l11.44-382.32c.11-3.84-.8-6.63-3.05-8.83-8.17-8-15.73-15.76-22.9-24.51-5.64-6.88-8.76-14.62-9.12-23.76-.69-17.75-1.11-34.69.21-52.62l8.96-121.38c3-.95,5.76-1.08,8.94-.45l3.24,125.94c.05,2.03,2.22,4.34,3.65,4.64,1.68.36,5.49-1.48,5.54-3.78l3.29-128.77,7.22.34,2.25,127.6c.04,2.23,3.25,4.41,4.9,4.51,1.73.11,4.95-2.12,4.99-4.29l1.12-67.41,1.01-59.82c1.44-1.56,5.4-1.72,7.35-.18l3.16,127.05c.07,2.79,2.32,4.74,4.37,4.76s4.83-1.95,4.9-4.53l3.23-127.06c3.05-.22,5.98.1,8.93,1.11l8.74,116.48c1.46,19.46,1.36,37.89.48,57.08-.39,8.54-2.47,16.48-7.95,22.84l-13.84,16.06Z"/>
  <path class="cls-1" d="M456.14,691.06c-6.33-6.79-8.67-15.37-8.42-24.77l6.71-249.48c-15.98-8.08-19.07-24.15-19.47-42.1-1.35-61.14.22-121.47,5.11-182.43,2.9-36.16,8.71-90.02,22.6-121.15,5.36-12.02,14.97-22.3,25.51-18.13,2.81,1.11,6.96,4.74,6.99,9.17l1.45,222.56.44,113.58c.03,6.87-3.53,11.62-8.67,16.19l6.68,248.55c.27,10.17-.8,18.52-6.93,26.33-7.99,10.19-22.48,11.88-32,1.67Z"/>
</svg>