<?xml version="1.0" encoding="UTF-8"?>
<svg id="Layer_1" data-name="Layer 1" xmlns="http://www.w3.org/2000/svg" viewBox="0 0 791.4 750">
  <path d="M464.95,689.08c-45.52,5.63-90.34,5.54-135.24.28-9.92-1.16-27.53-4.93-28.12-9.39-1.26-9.5,59.7-13.55,77.22-13.62,3.05-4.41,5.61-9.82,6.16-15.45l3.63-37.28c1.37-36.8,2.84-153.43-6.51-177.17l-9.75-24.75c-2.91-7.38-10.77-13.13-17.07-17.94l-38.5-29.33c-28.01-21.34-58.98-52-67.85-86.38-3.08-11.94-2.74-23.97-2.42-36.34,4.98-57.34,24.25-114.33,44.88-167.85h208.62c20.11,51.95,38.31,106.47,44.46,161.86.77,14.35,1.55,28.34-1.99,42.34-7.88,31.17-36.69,62.4-62.04,81.78l-39.64,30.3c-7.69,5.88-17.14,12.1-21.36,20.95-12.87,26.98-14.04,39.1-15.37,68.38-1.91,42.27-2.02,83.61-1.02,125.89.38,16.26,1.6,31.3,3.97,47.1.72,4.84,2.82,9.5,5.46,13.81,17.2.04,80.05,4.21,78.49,13.65-.71,4.31-16.37,7.98-26.02,9.18ZM473.71,355.16c15.07-11.3,29.01-23.44,41.28-37.8,10.61-12.42,17.9-27.05,21.68-42.83,2.77-11.56,1.93-23.07,1.69-34.9-5.68-55.87-23.98-111.62-44.74-163.67l-197.46.06-20.14,59.65c-8.78,28.37-16.28,55.99-20.82,85.33-1.93,16.91-4.2,33.09-1.13,49.97,3.72,20.44,14.22,38.75,28.62,53.51,20.64,21.15,45.4,41.24,72.66,52.4,42.6,17.45,82.65,5.05,118.35-21.72Z"/>
  <path d="M439.13,365.32c-58.29,28.26-104.89-1.07-147.59-42.37-29.13-28.44-35.49-56.58-28.83-96.54,14.42,11.74,27.51,21.77,43.48,28.65,37.14,15.21,58.85-.1,88.83-17.06l27.39-15.49c29.92-16.93,63.64-23.27,98.26-21.46,4.71,24.34,8.97,49.53,4.69,73.45-5.69,21.2-17.63,38.25-33.7,52.84-16.29,14.78-32.67,28.36-52.53,37.98Z"/>
</svg>